<svg xmlns="http://www.w3.org/2000/svg" xmlns:xlink="http://www.w3.org/1999/xlink" width="1000" zoomAndPan="magnify" viewBox="0 0 750 225" height="300" preserveAspectRatio="xMidYMid meet" version="1.0"><defs><g/><clipPath id="67031c2a0e"><path d="M 404.066406 1.125 L 418.316406 1.125 L 418.316406 225 L 404.066406 225 Z M 404.066406 1.125 " clip-rule="nonzero"/></clipPath><clipPath id="7ce0664493"><path d="M 415.828125 22 L 742.042969 22 L 742.042969 212.652344 L 415.828125 212.652344 Z M 415.828125 22 " clip-rule="nonzero"/></clipPath><clipPath id="a64b91b180"><path d="M 6.765625 2.023438 L 743.234375 2.023438 L 743.234375 224.476562 L 6.765625 224.476562 Z M 6.765625 2.023438 " clip-rule="nonzero"/></clipPath><clipPath id="a92214c324"><path d="M 5.863281 1.125 L 743.863281 1.125 L 743.863281 225 L 5.863281 225 Z M 5.863281 1.125 " clip-rule="nonzero"/></clipPath></defs><g fill="#003366" fill-opacity="1"><g transform="translate(43.283744, 99.617804)"><g><path d="M 26.859375 -58.015625 C 32.972656 -58.015625 38.316406 -56.800781 42.890625 -54.375 C 47.460938 -51.945312 51 -48.539062 53.5 -44.15625 C 56.007812 -39.78125 57.265625 -34.726562 57.265625 -29 C 57.265625 -23.332031 56.007812 -18.289062 53.5 -13.875 C 51 -9.46875 47.445312 -6.050781 42.84375 -3.625 C 38.25 -1.207031 32.921875 0 26.859375 0 L 5.125 0 L 5.125 -58.015625 Z M 25.953125 -12.234375 C 31.296875 -12.234375 35.453125 -13.691406 38.421875 -16.609375 C 41.398438 -19.523438 42.890625 -23.65625 42.890625 -29 C 42.890625 -34.34375 41.398438 -38.503906 38.421875 -41.484375 C 35.453125 -44.460938 31.296875 -45.953125 25.953125 -45.953125 L 19.25 -45.953125 L 19.25 -12.234375 Z M 25.953125 -12.234375 "/></g></g></g><g fill="#003366" fill-opacity="1"><g transform="translate(103.356191, 99.617804)"><g><path d="M 48.59375 -23.796875 C 48.59375 -22.472656 48.507812 -21.097656 48.34375 -19.671875 L 16.359375 -19.671875 C 16.578125 -16.804688 17.5 -14.613281 19.125 -13.09375 C 20.75 -11.582031 22.75 -10.828125 25.125 -10.828125 C 28.644531 -10.828125 31.097656 -12.3125 32.484375 -15.28125 L 47.515625 -15.28125 C 46.742188 -12.257812 45.351562 -9.535156 43.34375 -7.109375 C 41.332031 -4.679688 38.8125 -2.78125 35.78125 -1.40625 C 32.75 -0.03125 29.363281 0.65625 25.625 0.65625 C 21.101562 0.65625 17.078125 -0.304688 13.546875 -2.234375 C 10.023438 -4.160156 7.269531 -6.910156 5.28125 -10.484375 C 3.300781 -14.066406 2.3125 -18.257812 2.3125 -23.0625 C 2.3125 -27.851562 3.289062 -32.035156 5.25 -35.609375 C 7.207031 -39.191406 9.945312 -41.945312 13.46875 -43.875 C 17 -45.8125 21.050781 -46.78125 25.625 -46.78125 C 30.082031 -46.78125 34.046875 -45.84375 37.515625 -43.96875 C 40.984375 -42.09375 43.695312 -39.421875 45.65625 -35.953125 C 47.613281 -32.484375 48.59375 -28.429688 48.59375 -23.796875 Z M 34.125 -27.515625 C 34.125 -29.941406 33.296875 -31.867188 31.640625 -33.296875 C 29.992188 -34.734375 27.929688 -35.453125 25.453125 -35.453125 C 23.085938 -35.453125 21.09375 -34.765625 19.46875 -33.390625 C 17.84375 -32.015625 16.835938 -30.054688 16.453125 -27.515625 Z M 34.125 -27.515625 "/></g></g></g><g fill="#003366" fill-opacity="1"><g transform="translate(154.256644, 99.617804)"><g><path d="M 25.859375 -13.21875 L 35.859375 -46.109375 L 50.90625 -46.109375 L 34.546875 0 L 17.109375 0 L 0.75 -46.109375 L 15.859375 -46.109375 Z M 25.859375 -13.21875 "/></g></g></g><g fill="#003366" fill-opacity="1"><g transform="translate(205.983405, 99.617804)"><g><path d="M 11.734375 0.65625 C 9.253906 0.65625 7.226562 -0.0703125 5.65625 -1.53125 C 4.09375 -2.988281 3.3125 -4.789062 3.3125 -6.9375 C 3.3125 -9.144531 4.09375 -10.988281 5.65625 -12.46875 C 7.226562 -13.957031 9.253906 -14.703125 11.734375 -14.703125 C 14.160156 -14.703125 16.15625 -13.957031 17.71875 -12.46875 C 19.289062 -10.988281 20.078125 -9.144531 20.078125 -6.9375 C 20.078125 -4.789062 19.289062 -2.988281 17.71875 -1.53125 C 16.15625 -0.0703125 14.160156 0.65625 11.734375 0.65625 Z M 11.734375 0.65625 "/></g></g></g><g fill="#003366" fill-opacity="1"><g transform="translate(43.283744, 181.797375)"><g><path d="M 19.25 -46.6875 L 19.25 -34.953125 L 38.1875 -34.953125 L 38.1875 -24.046875 L 19.25 -24.046875 L 19.25 -11.328125 L 40.65625 -11.328125 L 40.65625 0 L 5.125 0 L 5.125 -58.015625 L 40.65625 -58.015625 L 40.65625 -46.6875 Z M 19.25 -46.6875 "/></g></g></g><g fill="#003366" fill-opacity="1"><g transform="translate(87.986902, 181.797375)"><g><path d="M 19.25 -61.15625 L 19.25 0 L 5.125 0 L 5.125 -61.15625 Z M 19.25 -61.15625 "/></g></g></g><g fill="#003366" fill-opacity="1"><g transform="translate(112.362933, 181.797375)"><g><path d="M 48.59375 -23.796875 C 48.59375 -22.472656 48.507812 -21.097656 48.34375 -19.671875 L 16.359375 -19.671875 C 16.578125 -16.804688 17.5 -14.613281 19.125 -13.09375 C 20.75 -11.582031 22.75 -10.828125 25.125 -10.828125 C 28.644531 -10.828125 31.097656 -12.3125 32.484375 -15.28125 L 47.515625 -15.28125 C 46.742188 -12.257812 45.351562 -9.535156 43.34375 -7.109375 C 41.332031 -4.679688 38.8125 -2.78125 35.78125 -1.40625 C 32.75 -0.03125 29.363281 0.65625 25.625 0.65625 C 21.101562 0.65625 17.078125 -0.304688 13.546875 -2.234375 C 10.023438 -4.160156 7.269531 -6.910156 5.28125 -10.484375 C 3.300781 -14.066406 2.3125 -18.257812 2.3125 -23.0625 C 2.3125 -27.851562 3.289062 -32.035156 5.25 -35.609375 C 7.207031 -39.191406 9.945312 -41.945312 13.46875 -43.875 C 17 -45.8125 21.050781 -46.78125 25.625 -46.78125 C 30.082031 -46.78125 34.046875 -45.84375 37.515625 -43.96875 C 40.984375 -42.09375 43.695312 -39.421875 45.65625 -35.953125 C 47.613281 -32.484375 48.59375 -28.429688 48.59375 -23.796875 Z M 34.125 -27.515625 C 34.125 -29.941406 33.296875 -31.867188 31.640625 -33.296875 C 29.992188 -34.734375 27.929688 -35.453125 25.453125 -35.453125 C 23.085938 -35.453125 21.09375 -34.765625 19.46875 -33.390625 C 17.84375 -32.015625 16.835938 -30.054688 16.453125 -27.515625 Z M 34.125 -27.515625 "/></g></g></g><g fill="#003366" fill-opacity="1"><g transform="translate(163.263386, 181.797375)"><g><path d="M 25.859375 -13.21875 L 35.859375 -46.109375 L 50.90625 -46.109375 L 34.546875 0 L 17.109375 0 L 0.75 -46.109375 L 15.859375 -46.109375 Z M 25.859375 -13.21875 "/></g></g></g><g fill="#003366" fill-opacity="1"><g transform="translate(214.990147, 181.797375)"><g><path d="M 2.3125 -23.140625 C 2.3125 -27.878906 3.207031 -32.035156 5 -35.609375 C 6.789062 -39.191406 9.226562 -41.945312 12.3125 -43.875 C 15.394531 -45.8125 18.835938 -46.78125 22.640625 -46.78125 C 25.890625 -46.78125 28.738281 -46.117188 31.1875 -44.796875 C 33.644531 -43.472656 35.535156 -41.734375 36.859375 -39.578125 L 36.859375 -46.109375 L 50.984375 -46.109375 L 50.984375 0 L 36.859375 0 L 36.859375 -6.53125 C 35.484375 -4.382812 33.566406 -2.648438 31.109375 -1.328125 C 28.660156 -0.00390625 25.8125 0.65625 22.5625 0.65625 C 18.8125 0.65625 15.394531 -0.316406 12.3125 -2.265625 C 9.226562 -4.222656 6.789062 -7.003906 5 -10.609375 C 3.207031 -14.222656 2.3125 -18.398438 2.3125 -23.140625 Z M 36.859375 -23.0625 C 36.859375 -26.582031 35.878906 -29.363281 33.921875 -31.40625 C 31.960938 -33.445312 29.582031 -34.46875 26.78125 -34.46875 C 23.96875 -34.46875 21.582031 -33.457031 19.625 -31.4375 C 17.664062 -29.425781 16.6875 -26.660156 16.6875 -23.140625 C 16.6875 -19.609375 17.664062 -16.8125 19.625 -14.75 C 21.582031 -12.6875 23.96875 -11.65625 26.78125 -11.65625 C 29.582031 -11.65625 31.960938 -12.671875 33.921875 -14.703125 C 35.878906 -16.742188 36.859375 -19.53125 36.859375 -23.0625 Z M 36.859375 -23.0625 "/></g></g></g><g fill="#003366" fill-opacity="1"><g transform="translate(271.096333, 181.797375)"><g><path d="M 30.828125 -11.984375 L 30.828125 0 L 23.640625 0 C 18.515625 0 14.519531 -1.25 11.65625 -3.75 C 8.789062 -6.257812 7.359375 -10.351562 7.359375 -16.03125 L 7.359375 -34.375 L 1.734375 -34.375 L 1.734375 -46.109375 L 7.359375 -46.109375 L 7.359375 -57.359375 L 21.484375 -57.359375 L 21.484375 -46.109375 L 30.75 -46.109375 L 30.75 -34.375 L 21.484375 -34.375 L 21.484375 -15.859375 C 21.484375 -14.484375 21.8125 -13.492188 22.46875 -12.890625 C 23.132812 -12.285156 24.238281 -11.984375 25.78125 -11.984375 Z M 30.828125 -11.984375 "/></g></g></g><g fill="#003366" fill-opacity="1"><g transform="translate(304.644358, 181.797375)"><g><path d="M 48.59375 -23.796875 C 48.59375 -22.472656 48.507812 -21.097656 48.34375 -19.671875 L 16.359375 -19.671875 C 16.578125 -16.804688 17.5 -14.613281 19.125 -13.09375 C 20.75 -11.582031 22.75 -10.828125 25.125 -10.828125 C 28.644531 -10.828125 31.097656 -12.3125 32.484375 -15.28125 L 47.515625 -15.28125 C 46.742188 -12.257812 45.351562 -9.535156 43.34375 -7.109375 C 41.332031 -4.679688 38.8125 -2.78125 35.78125 -1.40625 C 32.75 -0.03125 29.363281 0.65625 25.625 0.65625 C 21.101562 0.65625 17.078125 -0.304688 13.546875 -2.234375 C 10.023438 -4.160156 7.269531 -6.910156 5.28125 -10.484375 C 3.300781 -14.066406 2.3125 -18.257812 2.3125 -23.0625 C 2.3125 -27.851562 3.289062 -32.035156 5.25 -35.609375 C 7.207031 -39.191406 9.945312 -41.945312 13.46875 -43.875 C 17 -45.8125 21.050781 -46.78125 25.625 -46.78125 C 30.082031 -46.78125 34.046875 -45.84375 37.515625 -43.96875 C 40.984375 -42.09375 43.695312 -39.421875 45.65625 -35.953125 C 47.613281 -32.484375 48.59375 -28.429688 48.59375 -23.796875 Z M 34.125 -27.515625 C 34.125 -29.941406 33.296875 -31.867188 31.640625 -33.296875 C 29.992188 -34.734375 27.929688 -35.453125 25.453125 -35.453125 C 23.085938 -35.453125 21.09375 -34.765625 19.46875 -33.390625 C 17.84375 -32.015625 16.835938 -30.054688 16.453125 -27.515625 Z M 34.125 -27.515625 "/></g></g></g><g clip-path="url(#67031c2a0e)"><path fill="#003366" d="M 404.105469 1.125 L 404.105469 321.375 L 418.03125 321.375 L 418.03125 1.125 Z M 404.105469 1.125 " fill-opacity="1" fill-rule="nonzero"/></g><g clip-path="url(#7ce0664493)"><path fill="#003366" d="M 740.085938 78.917969 C 740.738281 78.902344 741.390625 78.902344 742.042969 78.898438 L 742.042969 68.660156 C 733.128906 64.6875 723.199219 63.492188 713.972656 65.304688 C 698.820312 68.285156 685.367188 79.496094 679.691406 93.859375 C 679.390625 94.621094 679.105469 95.398438 678.820312 96.179688 C 677.460938 99.871094 676.058594 103.683594 672.988281 106.542969 C 669.84375 109.46875 665.851562 110.566406 661.988281 111.625 C 660.28125 112.09375 658.671875 112.535156 657.148438 113.125 C 655.117188 113.910156 651.617188 116.421875 650.609375 118.90625 C 650.199219 119.921875 650.375 120.535156 650.546875 120.90625 C 650.550781 120.910156 650.550781 120.910156 650.550781 120.914062 C 651 120.835938 651.839844 120.441406 652.320312 120.214844 C 652.71875 120.03125 653.101562 119.855469 653.453125 119.714844 C 656.21875 118.621094 659.105469 117.773438 662.03125 117.191406 C 664.542969 116.691406 667.105469 116.386719 669.648438 116.28125 C 670.066406 116.265625 670.484375 116.257812 670.894531 116.257812 C 671.355469 116.257812 671.8125 116.265625 672.261719 116.273438 C 672.632812 116.28125 673.007812 116.289062 673.378906 116.289062 L 673.414062 116.289062 C 676.070312 116.289062 679.285156 115.152344 683.230469 112.816406 C 689.0625 109.363281 693.839844 104.667969 698.898438 99.699219 C 703.078125 95.59375 707.398438 91.347656 712.355469 87.894531 C 720.769531 82.027344 729.578125 79.175781 740.085938 78.917969 Z M 582.929688 212.359375 L 536.179688 212.359375 C 541.679688 208.605469 547.660156 205.441406 554.242188 204.53125 C 564.078125 203.171875 573.515625 206.875 582.929688 212.359375 Z M 697.519531 131.539062 L 694.980469 133.535156 C 684.511719 141.734375 673.191406 149.9375 659.996094 152.265625 C 639.183594 155.941406 620.480469 144.71875 600.675781 132.839844 C 582.03125 121.65625 562.746094 110.09375 541.339844 111.914062 C 534.515625 112.492188 527.90625 114.453125 521.515625 116.351562 C 513.898438 118.613281 506.703125 120.746094 499.191406 120.746094 L 499.054688 120.746094 C 488.445312 120.710938 478.292969 116.292969 468.4375 111.035156 C 471.132812 111.28125 473.851562 111.324219 476.601562 111.085938 C 487.796875 110.121094 497.914062 104.644531 507.699219 99.347656 C 518.984375 93.242188 529.636719 87.476562 541.480469 88.359375 C 552.671875 89.195312 562.746094 96.105469 572.488281 102.785156 C 583.179688 110.117188 594.214844 117.683594 607.09375 117.683594 C 607.917969 117.683594 608.746094 117.652344 609.582031 117.589844 C 625.097656 116.410156 638.640625 104.246094 649.839844 81.429688 C 650.617188 79.84375 651.390625 78.242188 652.167969 76.628906 C 659.285156 61.878906 666.640625 46.621094 680.542969 39.5 C 695.644531 31.757812 713.726562 36.570312 725.609375 43.65625 C 731.613281 47.238281 737.015625 51.644531 742.042969 56.480469 L 742.042969 63.757812 C 732.765625 60.042969 722.597656 59.007812 713.101562 60.875 C 696.480469 64.148438 681.71875 76.441406 675.496094 92.199219 C 675.179688 92.996094 674.882812 93.808594 674.582031 94.621094 C 673.355469 97.960938 672.195312 101.113281 669.914062 103.238281 C 667.582031 105.410156 664.285156 106.316406 660.796875 107.273438 C 659.054688 107.75 657.257812 108.242188 655.519531 108.914062 C 652.894531 109.929688 648.101562 113.082031 646.429688 117.207031 C 645.644531 119.132812 645.652344 121.0625 646.445312 122.792969 C 647.128906 124.273438 648.160156 124.910156 648.90625 125.183594 C 649.398438 125.367188 649.894531 125.441406 650.382812 125.441406 C 651.808594 125.441406 653.167969 124.804688 654.234375 124.304688 C 654.542969 124.160156 654.839844 124.019531 655.113281 123.910156 C 657.628906 122.917969 660.253906 122.148438 662.910156 121.617188 C 665.195312 121.164062 667.523438 120.886719 669.835938 120.792969 C 670.601562 120.757812 671.371094 120.773438 672.1875 120.785156 C 672.578125 120.792969 672.96875 120.800781 673.359375 120.800781 L 673.414062 120.800781 C 676.90625 120.800781 680.867188 119.460938 685.53125 116.699219 C 691.835938 112.964844 697.035156 107.859375 702.0625 102.917969 C 706.109375 98.945312 710.292969 94.832031 714.9375 91.59375 C 722.589844 86.257812 730.617188 83.664062 740.199219 83.429688 C 740.804688 83.414062 741.425781 83.417969 742.042969 83.414062 L 742.042969 109.140625 C 737.964844 109.386719 733.980469 110.167969 730.359375 111.359375 C 717.957031 115.441406 707.570312 123.625 697.519531 131.539062 Z M 609.039062 53.898438 C 606.042969 55.835938 602.484375 56.941406 598.722656 58.117188 C 596.644531 58.765625 594.5 59.4375 592.394531 60.269531 C 591.097656 60.785156 589.875 61.351562 588.734375 61.96875 C 585.703125 63.605469 583.234375 65.761719 580.980469 68.417969 C 580.625 68.839844 580.222656 69.160156 579.785156 69.472656 C 578.460938 70.414062 577.480469 71.792969 575.828125 72.183594 C 574.121094 72.585938 571.035156 71.210938 571.191406 68.855469 C 571.273438 67.652344 572.007812 66.550781 572.566406 65.597656 C 573.253906 64.429688 574.023438 63.320312 574.8125 62.238281 C 578.652344 56.988281 582.714844 51.808594 586.890625 46.835938 C 591.097656 41.820312 595.699219 36.8125 601.59375 35.453125 C 606.371094 34.355469 613.09375 36.984375 614.601562 42.019531 C 615.96875 46.585938 612.835938 51.449219 609.039062 53.898438 Z M 678.480469 35.484375 C 663.230469 43.296875 655.539062 59.246094 648.101562 74.671875 C 647.328125 76.273438 646.558594 77.867188 645.789062 79.441406 C 635.34375 100.71875 623.046875 112.039062 609.238281 113.085938 C 596.851562 114.035156 586.261719 106.757812 575.042969 99.0625 C 574.152344 98.453125 573.261719 97.84375 572.367188 97.234375 C 575.277344 98.179688 578.289062 98.792969 581.449219 98.902344 C 581.796875 98.914062 582.140625 98.917969 582.484375 98.917969 C 596.769531 98.921875 607.984375 88.691406 613.46875 82.492188 C 617.773438 77.621094 621.464844 72.222656 625.039062 67 C 628 62.671875 631.0625 58.195312 634.414062 54.121094 C 659.738281 23.347656 706.460938 14.179688 742.042969 31.113281 L 742.042969 50.359375 C 737.664062 46.425781 732.984375 42.800781 727.917969 39.78125 C 711.433594 29.953125 692.492188 28.304688 678.480469 35.484375 Z M 420.519531 190.308594 C 422.402344 192.714844 424.097656 195.445312 425.734375 198.089844 C 428.949219 203.285156 432.289062 208.636719 437.433594 212.359375 L 419.21875 212.359375 C 417.339844 212.359375 415.816406 210.835938 415.816406 208.957031 L 415.816406 185.335938 C 417.527344 186.847656 419.113281 188.503906 420.519531 190.308594 Z M 436.679688 102.640625 C 439.542969 103.472656 442.472656 104.425781 445.304688 105.347656 C 448.050781 106.246094 450.828125 107.144531 453.625 107.96875 C 455.058594 108.761719 456.492188 109.570312 457.9375 110.382812 C 470.875 117.671875 484.257812 125.207031 499.039062 125.257812 L 499.1875 125.257812 C 507.359375 125.257812 515.207031 122.929688 522.796875 120.675781 C 528.972656 118.84375 535.359375 116.949219 541.722656 116.410156 C 561.664062 114.703125 580.324219 125.894531 598.355469 136.707031 C 615.410156 146.9375 632.972656 157.472656 652.011719 157.472656 C 654.898438 157.472656 657.820312 157.230469 660.777344 156.707031 C 675 154.199219 687.324219 145.261719 697.761719 137.085938 L 700.3125 135.082031 C 710.054688 127.410156 720.125 119.480469 731.769531 115.648438 C 734.964844 114.597656 738.464844 113.894531 742.042969 113.648438 L 742.042969 160.414062 C 740.375 161.070312 738.851562 161.738281 737.511719 162.371094 C 731.945312 165.007812 726.605469 168.203125 721.445312 171.292969 C 715.039062 175.128906 708.414062 179.097656 701.460938 181.890625 C 680.539062 190.296875 655.753906 187.949219 636.785156 175.761719 C 633.132812 173.417969 629.609375 170.667969 626.199219 168.011719 C 622.070312 164.792969 617.804688 161.46875 613.171875 158.722656 C 607.066406 155.101562 595.09375 149.703125 583.488281 154.179688 C 581.535156 154.933594 579.714844 155.929688 577.957031 156.894531 C 575.386719 158.300781 572.964844 159.628906 570.359375 160.097656 C 564.972656 161.070312 559.820312 158.324219 554.363281 155.417969 C 550.066406 153.128906 545.621094 150.761719 540.707031 150.015625 C 530.316406 148.441406 521.550781 154.269531 513.078125 159.90625 C 506.976562 163.960938 500.667969 168.15625 493.910156 169.433594 C 479.367188 172.179688 466.003906 161.144531 459.332031 154.324219 C 456.265625 151.1875 453.304688 147.765625 450.441406 144.457031 C 444.269531 137.324219 437.890625 129.945312 429.785156 124.605469 C 425.679688 121.898438 420.832031 119.84375 415.8125 118.757812 L 415.8125 99.988281 C 422.988281 99.417969 430.496094 100.847656 436.679688 102.640625 Z M 436.804688 75.554688 L 438.960938 77.105469 C 449.816406 84.925781 462.140625 93.804688 476.171875 93.050781 C 485.351562 92.566406 493.488281 88.0625 501.359375 83.707031 C 509.476562 79.214844 517.144531 74.972656 525.644531 74.972656 C 525.753906 74.972656 525.867188 74.972656 525.980469 74.972656 C 535.355469 75.097656 543.476562 80.355469 552.011719 86.054688 C 548.738281 84.914062 545.355469 84.121094 541.816406 83.859375 C 528.65625 82.878906 516.910156 89.230469 505.550781 95.378906 C 496.171875 100.453125 486.472656 105.703125 476.210938 106.589844 C 469.242188 107.191406 462.25 105.761719 455.363281 103.769531 C 442.832031 96.835938 429.867188 90.625 415.816406 92.316406 L 415.816406 64.582031 C 422.039062 66.304688 428.953125 69.929688 436.804688 75.554688 Z M 447.03125 147.410156 C 449.9375 150.769531 452.941406 154.246094 456.109375 157.480469 C 463.410156 164.945312 478.144531 177.007812 494.75 173.867188 C 502.40625 172.417969 509.101562 167.96875 515.578125 163.664062 C 523.695312 158.265625 531.363281 153.167969 540.03125 154.480469 C 544.183594 155.109375 548.097656 157.195312 552.242188 159.402344 C 558.140625 162.542969 564.234375 165.792969 571.164062 164.539062 C 574.488281 163.9375 577.351562 162.371094 580.125 160.851562 C 581.828125 159.917969 583.441406 159.035156 585.117188 158.386719 C 592.296875 155.621094 601.679688 157.15625 610.871094 162.601562 C 615.257812 165.203125 619.410156 168.441406 623.421875 171.570312 C 626.914062 174.289062 630.519531 177.101562 634.34375 179.558594 C 646.5 187.367188 660.902344 191.382812 675.296875 191.382812 C 684.796875 191.382812 694.292969 189.632812 703.144531 186.078125 C 710.425781 183.152344 717.207031 179.09375 723.765625 175.164062 C 728.832031 172.132812 734.074219 168.992188 739.441406 166.453125 C 740.3125 166.042969 741.175781 165.65625 742.042969 165.289062 L 742.042969 208.957031 C 742.042969 210.835938 740.519531 212.359375 738.640625 212.359375 L 639.925781 212.359375 C 628.65625 204.421875 616.921875 197.066406 604.898438 190.417969 C 589.695312 182.019531 571.777344 174.09375 554.101562 179.011719 C 541.789062 182.441406 532.46875 191.429688 523.453125 200.125 C 520.941406 202.546875 518.34375 205.050781 515.75 207.359375 C 513.792969 209.105469 511.660156 210.792969 509.417969 212.359375 L 447.667969 212.359375 C 445.074219 211.542969 442.636719 210.5 440.4375 208.976562 C 435.808594 205.78125 432.777344 200.890625 429.570312 195.710938 C 427.871094 192.96875 426.109375 190.128906 424.078125 187.527344 C 421.710938 184.5 418.914062 181.832031 415.816406 179.558594 L 415.816406 123.421875 C 419.914062 124.410156 423.886719 126.121094 427.304688 128.375 C 434.886719 133.371094 440.785156 140.191406 447.03125 147.410156 Z M 526.582031 203.375 C 535.195312 195.070312 544.101562 186.484375 555.3125 183.363281 C 571.417969 178.878906 588.3125 186.410156 602.714844 194.371094 C 612.710938 199.898438 622.507812 205.917969 631.996094 212.359375 L 591.515625 212.359375 C 579.296875 204.449219 567.0625 198.203125 553.625 200.0625 C 543.988281 201.394531 535.582031 206.980469 528.496094 212.359375 L 516.851562 212.359375 C 517.59375 211.746094 518.234375 211.195312 518.753906 210.730469 C 521.414062 208.359375 524.039062 205.828125 526.582031 203.375 Z M 526.582031 203.375 " fill-opacity="1" fill-rule="nonzero"/></g><g clip-path="url(#a64b91b180)"><path fill="#003366" d="M 738.777344 1.546875 L 11.222656 1.546875 C 8.007812 1.546875 5.863281 3.6875 5.863281 6.902344 L 5.863281 219.597656 C 5.863281 222.8125 8.007812 224.953125 11.222656 224.953125 L 738.777344 224.953125 C 741.992188 224.953125 744.132812 222.8125 744.132812 219.597656 L 744.132812 6.902344 C 744.132812 4.222656 741.992188 1.546875 738.777344 1.546875 Z M 733.417969 214.777344 L 16.578125 214.777344 L 16.578125 12.261719 L 733.417969 12.261719 Z M 733.417969 214.777344 " fill-opacity="1" fill-rule="nonzero"/></g><g clip-path="url(#a92214c324)"><path stroke-linecap="butt" transform="matrix(0.75, 0, 0, 0.75, 5.864197, 1.12501)" fill="none" stroke-linejoin="miter" d="M -0.00122126 -0.0000132708 L -0.00122126 298.999999 L 984.358258 298.999999 L 984.358258 -0.0000132708 L -0.00122126 -0.0000132708 " stroke="#003366" stroke-width="40" stroke-opacity="1" stroke-miterlimit="4"/></g></svg>